<?xml version="1.0" standalone="no"?>
<!DOCTYPE svg PUBLIC "-//W3C//DTD SVG 20010904//EN"
 "http://www.w3.org/TR/2001/REC-SVG-20010904/DTD/svg10.dtd">
<svg version="1.0" xmlns="http://www.w3.org/2000/svg"
 width="700.000000pt" height="700.000000pt" viewBox="0 0 700.000000 700.000000"
 preserveAspectRatio="xMidYMid meet">
<metadata>
Created by potrace 1.14, written by Peter Selinger 2001-2017
</metadata>
<g transform="translate(0.000000,700.000000) scale(0.100000,-0.100000)"
fill="#000000" stroke="none">
<path d="M3088 6924 c-2 -1 -15 -5 -29 -7 -111 -20 -230 -148 -266 -284 -15
-55 -14 -177 2 -293 7 -50 14 -116 20 -190 4 -36 8 -78 10 -95 2 -16 7 -57 10
-90 3 -33 10 -98 15 -145 5 -47 12 -112 15 -145 3 -33 8 -79 10 -102 3 -23 8
-68 10 -100 3 -32 7 -74 10 -93 7 -49 13 -105 20 -175 3 -33 7 -76 10 -95 2
-19 7 -66 10 -103 4 -37 8 -76 10 -85 1 -9 6 -53 9 -97 4 -44 9 -91 11 -105 2
-14 7 -45 10 -70 15 -103 96 -209 191 -252 50 -22 147 -26 202 -9 91 28 181
109 226 205 27 56 46 145 41 191 -1 17 -6 66 -9 110 -4 44 -9 91 -11 105 -2
14 -6 55 -10 91 -3 36 -7 76 -10 90 -2 13 -6 58 -10 100 -3 42 -8 87 -10 100
-2 13 -6 53 -10 89 -3 36 -10 106 -15 155 -6 50 -12 110 -15 135 -2 25 -7 74
-11 110 -4 36 -8 79 -10 95 -1 17 -5 53 -8 80 -3 28 -8 75 -11 105 -4 30 -8
71 -10 90 -2 19 -7 62 -10 95 -8 80 -15 142 -20 185 -2 19 -7 62 -10 94 -19
177 -140 304 -296 311 -32 1 -60 1 -61 -1z"/>
<path d="M5728 6046 c-54 -15 -113 -51 -166 -104 -43 -41 -472 -457 -562 -542
-31 -30 -169 -163 -306 -296 -137 -132 -291 -281 -342 -330 -73 -69 -100 -103
-128 -159 -41 -85 -54 -166 -39 -255 23 -143 107 -242 231 -274 128 -33 220 6
381 161 61 60 204 198 318 308 114 110 232 224 263 254 110 105 464 447 561
541 53 52 110 117 126 144 169 289 -41 632 -337 552z"/>
<path d="M734 4569 c-227 -41 -368 -335 -266 -553 33 -70 84 -126 139 -154 28
-14 514 -153 618 -177 25 -5 75 -19 135 -35 528 -148 902 -243 955 -243 172 0
332 168 348 367 11 138 -57 278 -167 340 -23 13 -187 63 -366 111 -337 90
-404 108 -480 130 -25 7 -108 29 -185 50 -77 20 -212 56 -300 80 -361 98 -356
97 -431 84z"/>
<path d="M3666 3743 c-33 -7 -80 -27 -105 -43 -37 -23 -320 -306 -491 -490
-19 -21 -143 -149 -275 -285 -132 -136 -265 -273 -295 -305 -30 -31 -161 -167
-291 -301 -130 -134 -265 -273 -299 -309 -34 -36 -156 -162 -271 -280 -250
-259 -245 -253 -277 -315 -101 -197 -34 -437 145 -517 82 -36 169 -34 263 8
41 19 245 224 889 894 40 41 179 185 309 320 130 134 262 270 292 301 30 32
159 164 285 294 127 131 233 242 236 247 4 6 76 -10 185 -40 99 -28 253 -72
344 -97 91 -25 188 -52 215 -60 28 -8 115 -33 195 -55 80 -22 174 -49 210 -60
36 -10 85 -24 110 -30 25 -6 74 -20 110 -30 36 -11 128 -37 205 -59 77 -21
280 -78 450 -127 352 -99 390 -104 487 -61 208 92 295 379 174 572 -58 94 -97
116 -309 176 -201 58 -449 128 -492 139 -16 4 -145 40 -285 80 -140 40 -277
78 -305 86 -27 7 -115 32 -195 54 -80 23 -152 43 -160 45 -8 2 -46 13 -85 24
-38 12 -176 50 -305 86 -129 36 -264 74 -300 84 -247 71 -273 75 -364 54z"/>
<path d="M3990 2502 c-14 -1 -45 -10 -70 -19 -197 -71 -300 -303 -231 -518 29
-92 317 -974 341 -1045 10 -30 62 -187 115 -349 52 -161 104 -310 114 -330 77
-151 252 -207 407 -131 144 70 234 245 212 412 -6 48 -61 226 -198 638 -16 47
-92 281 -170 520 -235 722 -220 683 -296 749 -58 51 -152 82 -224 73z"/>
</g>
</svg>
